{"glyphs":{"0":{"ha":822,"x_min":0,"x_max":0,"o":"m 56 492 b 411 -17 56 26 301 -17 b 767 492 521 -17 767 26 b 411 1000 767 957 521 1000 b 56 492 301 1000 56 957 z m 222 492 b 411 842 222 614 244 842 b 600 492 578 842 600 614 b 411 142 600 369 578 142 b 222 492 244 142 222 369 z "},"1":{"ha":822,"x_min":0,"x_max":0,"o":"m 372 0 l 539 0 l 539 983 l 388 983 l 90 736 l 188 621 l 372 792 z "},"2":{"ha":822,"x_min":0,"x_max":0,"o":"m 82 0 l 740 0 l 740 150 l 285 150 l 589 432 b 740 721 676 513 740 597 b 422 1000 740 910 599 1000 b 96 722 244 1000 113 904 l 271 708 b 422 842 282 789 340 842 b 565 713 499 842 565 793 b 464 546 565 644 510 590 l 82 176 z "},"3":{"ha":822,"x_min":0,"x_max":0,"o":"m 308 438 l 349 438 b 567 288 450 438 567 415 b 401 133 567 196 490 133 b 242 261 313 133 263 181 l 64 214 b 401 -17 107 50 240 -17 b 733 274 576 -17 733 86 b 542 513 733 394 667 494 l 542 515 b 710 738 646 542 710 632 b 394 1000 710 911 564 1000 b 79 789 250 1000 122 935 l 256 742 b 403 850 279 810 336 850 b 543 721 485 850 543 796 b 351 588 543 601 447 588 l 308 588 z "},"4":{"ha":822,"x_min":0,"x_max":0,"o":"m 465 0 l 632 0 l 632 200 l 775 200 l 775 350 l 632 350 l 632 983 l 443 983 l 47 365 l 47 200 l 465 200 z m 465 350 l 217 350 l 463 747 l 465 747 z "},"5":{"ha":822,"x_min":0,"x_max":0,"o":"m 701 983 l 142 983 l 132 453 b 338 500 190 482 265 500 b 568 310 460 500 568 447 b 397 142 568 214 497 142 b 236 256 313 142 258 185 l 61 208 b 379 -17 107 57 224 -17 b 735 324 581 -17 735 113 b 407 650 735 522 600 650 b 301 638 372 650 328 646 l 306 833 l 701 833 z "},"6":{"ha":822,"x_min":0,"x_max":0,"o":"m 404 983 l 153 588 b 61 318 99 501 61 421 b 411 -17 61 110 206 -17 b 761 319 613 -17 761 115 b 465 633 761 490 639 633 b 374 617 432 633 393 628 l 371 619 l 607 983 z m 236 321 b 415 500 236 419 317 500 b 594 321 514 500 594 419 b 415 142 594 222 514 142 b 236 321 317 142 236 222 z "},"7":{"ha":822,"x_min":0,"x_max":0,"o":"m 58 825 l 539 825 l 138 0 l 333 0 l 726 831 l 726 983 l 58 983 z "},"8":{"ha":822,"x_min":0,"x_max":0,"o":"m 411 1000 b 110 742 244 1000 110 907 b 258 521 110 638 160 550 l 258 518 b 79 279 165 499 79 400 b 411 -17 79 85 228 -17 b 743 279 594 -17 743 85 b 564 518 743 400 658 499 l 564 521 b 713 742 663 550 713 638 b 411 1000 713 907 578 1000 z m 411 858 b 546 725 488 858 546 799 b 411 588 546 647 485 588 b 276 725 329 588 276 647 b 411 858 276 799 326 858 z m 411 454 b 576 300 501 454 576 390 b 411 142 576 207 507 142 b 246 300 315 142 246 207 b 411 454 246 390 321 454 z "},"9":{"ha":822,"x_min":0,"x_max":0,"o":"m 418 0 l 669 396 b 761 665 724 482 761 563 b 411 1000 761 874 617 1000 b 61 664 210 1000 61 868 b 357 350 61 493 183 350 b 449 367 390 350 429 356 l 451 364 l 215 0 z m 586 663 b 407 483 586 564 506 483 b 228 663 308 483 228 564 b 407 842 228 761 308 842 b 586 663 506 842 586 761 z "}," ":{"ha":411,"x_min":0,"x_max":0,"o":""},"!":{"ha":411,"x_min":0,"x_max":0,"o":"m 289 983 l 122 983 l 122 308 l 289 308 z m 94 97 b 206 -8 94 38 147 -8 b 317 100 267 -8 317 40 b 206 206 317 160 265 206 b 94 97 144 206 94 157 z "},"\"":{"ha":721,"x_min":0,"x_max":0,"o":"m 167 617 l 308 617 l 308 983 l 167 983 z m 413 617 l 554 617 l 554 983 l 413 983 z "},"#":{"ha":822,"x_min":0,"x_max":0,"o":"m 149 0 l 269 0 l 311 290 l 456 290 l 414 0 l 535 0 l 578 290 l 717 290 l 717 407 l 592 407 l 615 576 l 757 576 l 757 693 l 632 693 l 674 983 l 553 983 l 511 693 l 368 693 l 410 983 l 288 983 l 246 693 l 106 693 l 106 576 l 231 576 l 206 407 l 65 407 l 65 290 l 190 290 z m 494 576 l 471 407 l 328 407 l 351 576 z "},"$":{"ha":822,"x_min":0,"x_max":0,"o":"m 442 1092 l 367 1092 l 367 999 b 67 713 211 983 67 878 b 360 428 67 529 204 471 l 367 426 l 367 133 b 169 236 290 140 214 174 l 43 107 b 367 -17 128 18 246 -18 l 367 -115 l 442 -115 l 442 -15 b 760 289 618 3 760 106 b 447 571 760 479 603 529 l 442 572 l 442 850 b 611 775 506 850 568 821 l 726 904 b 454 1000 656 967 549 1000 l 442 1000 z m 367 593 b 242 721 300 622 242 636 b 367 847 242 792 301 836 z m 442 404 b 585 276 507 382 585 358 b 442 133 585 194 518 149 z "},"%":{"ha":1260,"x_min":0,"x_max":0,"o":"m 701 242 b 960 -17 701 99 817 -17 b 1218 242 1103 -17 1218 99 b 960 500 1218 385 1103 500 b 701 242 817 500 701 385 z m 1085 242 b 960 117 1085 172 1029 117 b 835 242 890 117 835 172 b 960 367 835 311 890 367 b 1085 242 1029 367 1085 311 z m 42 742 b 300 483 42 599 157 483 b 558 742 443 483 558 599 b 300 1000 558 885 443 1000 b 42 742 157 1000 42 885 z m 425 742 b 300 617 425 672 369 617 b 175 742 231 617 175 672 b 300 867 175 811 231 867 b 425 742 369 867 425 811 z m 285 8 l 400 -44 l 978 975 l 863 1028 z "},"&":{"ha":1029,"x_min":0,"x_max":0,"o":"m 994 517 l 799 517 l 689 350 l 531 521 b 726 775 628 571 726 654 b 449 1008 726 936 596 1008 b 167 767 300 1008 167 928 b 279 540 167 669 217 610 b 67 264 161 494 67 396 b 400 -25 67 76 226 -25 b 690 113 525 -25 611 19 l 794 0 l 1010 0 l 797 232 z m 451 858 b 560 767 511 858 560 819 b 426 617 560 694 483 647 b 333 760 383 657 333 708 b 451 858 333 818 388 858 z m 586 222 b 406 125 536 174 482 125 b 250 274 322 125 250 188 b 385 442 250 358 319 403 z "},"’":{"ha":411,"x_min":0,"x_max":0,"o":"m 72 617 l 221 617 l 339 983 l 169 983 z "},"(":{"ha":411,"x_min":0,"x_max":0,"o":"m 269 1017 b 67 400 143 842 67 625 b 269 -217 67 174 143 -42 l 386 -140 b 208 400 275 14 208 208 b 386 939 208 590 275 785 l 388 944 z "},")":{"ha":411,"x_min":0,"x_max":0,"o":"m 142 -217 b 344 400 268 -42 344 175 b 142 1017 344 626 268 842 l 25 939 b 203 400 136 785 203 592 b 25 -139 203 210 136 15 l 24 -144 z "},"*":{"ha":643,"x_min":0,"x_max":0,"o":"m 381 983 l 264 983 l 264 786 l 75 851 l 39 740 l 229 675 l 110 518 l 203 447 l 319 607 l 439 443 l 535 513 l 415 675 l 604 736 l 568 847 l 381 786 z "},"+":{"ha":925,"x_min":0,"x_max":0,"o":"m 86 492 l 86 350 l 392 350 l 392 44 l 533 44 l 533 350 l 839 350 l 839 492 l 533 492 l 533 797 l 392 797 l 392 492 z "},",":{"ha":411,"x_min":0,"x_max":0,"o":"m 53 -175 l 201 -175 l 319 192 l 150 192 z "},"-":{"ha":438,"x_min":0,"x_max":0,"o":"m 390 413 l 47 413 l 47 271 l 390 271 z "},".":{"ha":411,"x_min":0,"x_max":0,"o":"m 94 97 b 206 -8 94 38 147 -8 b 317 100 267 -8 317 40 b 206 206 317 160 265 206 b 94 97 144 206 94 157 z "},"/":{"ha":540,"x_min":0,"x_max":0,"o":"m 536 1008 l 421 1053 l -12 -25 l 103 -67 z "},":":{"ha":411,"x_min":0,"x_max":0,"o":"m 94 97 b 206 -8 94 38 147 -8 b 317 100 267 -8 317 40 b 206 206 317 160 265 206 b 94 97 144 206 94 157 z m 94 568 b 206 463 94 508 147 463 b 317 571 267 463 317 511 b 206 676 317 631 265 676 b 94 568 144 676 94 628 z "},";":{"ha":411,"x_min":0,"x_max":0,"o":"m 53 -175 l 201 -175 l 319 192 l 150 192 z m 94 568 b 206 463 94 508 147 463 b 317 571 267 463 317 511 b 206 676 317 631 265 676 b 94 568 144 676 94 628 z "},"<":{"ha":925,"x_min":0,"x_max":0,"o":"m 814 58 l 814 211 l 344 421 l 814 631 l 814 783 l 111 471 l 111 371 z "},"=":{"ha":925,"x_min":0,"x_max":0,"o":"m 86 617 l 86 475 l 839 475 l 839 617 z m 86 367 l 86 225 l 839 225 l 839 367 z "},">":{"ha":925,"x_min":0,"x_max":0,"o":"m 111 783 l 111 631 l 581 421 l 111 211 l 111 58 l 814 371 l 814 471 z "},"?":{"ha":721,"x_min":0,"x_max":0,"o":"m 458 290 l 458 343 b 532 482 458 415 481 433 b 683 738 613 558 683 617 b 390 1008 683 913 556 1008 b 67 728 214 1008 88 904 l 244 714 b 383 850 251 789 306 850 b 508 728 456 850 508 800 b 474 638 508 693 497 661 l 367 529 b 292 367 310 471 292 450 l 292 290 z m 264 97 b 375 -8 264 38 317 -8 b 486 100 436 -8 486 40 b 375 206 486 160 435 206 b 264 97 314 206 264 157 z "},"@":{"ha":1111,"x_min":0,"x_max":0,"o":"m 557 633 b 660 506 626 633 660 579 b 525 338 660 429 631 338 b 410 465 410 338 410 436 b 557 633 410 557 464 633 z m 857 185 b 594 100 789 131 699 100 b 186 490 360 100 186 247 b 571 883 186 718 340 883 b 933 544 782 883 933 767 b 814 338 933 400 872 338 b 776 389 785 338 776 356 b 789 468 776 417 783 442 l 840 742 l 710 742 l 699 679 l 696 679 b 546 758 668 736 619 758 b 268 446 374 758 268 608 b 468 213 268 308 349 213 b 646 288 556 213 610 250 l 649 288 b 758 213 650 251 681 213 b 1067 551 842 213 1067 256 b 575 1008 1067 846 819 1008 b 44 490 282 1008 44 786 b 583 -25 44 189 288 -25 b 1010 185 753 -25 911 49 z "},"A":{"ha":1003,"x_min":0,"x_max":0,"o":"m 0 0 l 196 0 l 285 225 l 711 225 l 803 0 l 1003 0 l 579 983 l 428 983 z m 344 375 l 499 775 l 650 375 z "},"B":{"ha":900,"x_min":0,"x_max":0,"o":"m 110 0 l 464 0 b 836 281 650 0 836 67 b 624 518 836 407 747 504 l 624 521 b 794 736 725 551 794 625 b 493 983 794 915 642 983 l 110 983 z m 285 833 l 429 833 b 619 707 561 833 619 792 b 444 583 619 633 561 583 l 285 583 z m 285 433 l 453 433 b 661 294 594 433 661 397 b 446 150 661 165 536 150 l 285 150 z "},"C":{"ha":951,"x_min":0,"x_max":0,"o":"m 921 853 b 576 1008 824 965 710 1008 b 57 488 274 1008 57 803 b 576 -25 57 181 274 -25 b 943 150 721 -25 854 28 l 799 253 b 578 133 733 169 657 133 b 240 499 375 133 240 289 b 578 850 240 694 375 850 b 785 753 646 850 713 829 z "},"D":{"ha":1054,"x_min":0,"x_max":0,"o":"m 110 0 l 476 0 b 997 492 713 0 997 156 b 497 983 997 825 756 983 l 110 983 z m 285 158 l 285 825 l 444 825 b 814 492 658 825 814 731 b 415 158 814 253 635 158 z "},"E":{"ha":849,"x_min":0,"x_max":0,"o":"m 110 0 l 786 0 l 786 158 l 285 158 l 285 425 l 736 425 l 736 583 l 285 583 l 285 825 l 761 825 l 761 983 l 110 983 z "},"F":{"ha":797,"x_min":0,"x_max":0,"o":"m 110 0 l 285 0 l 285 408 l 718 408 l 718 567 l 285 567 l 285 825 l 744 825 l 744 983 l 110 983 z "},"G":{"ha":1081,"x_min":0,"x_max":0,"o":"m 983 575 l 607 575 l 607 417 l 808 417 l 808 185 b 578 133 747 150 667 133 b 240 499 375 133 240 289 b 578 850 240 694 375 850 b 835 754 676 850 772 815 l 964 885 b 576 1008 861 976 726 1008 b 57 488 274 1008 57 803 b 576 -25 57 181 274 -25 b 983 72 728 -25 864 8 z "},"H":{"ha":1029,"x_min":0,"x_max":0,"o":"m 110 0 l 285 0 l 285 433 l 744 433 l 744 0 l 919 0 l 919 983 l 744 983 l 744 592 l 285 592 l 285 983 l 110 983 z "},"I":{"ha":386,"x_min":0,"x_max":0,"o":"m 106 0 l 281 0 l 281 983 l 106 983 z "},"J":{"ha":694,"x_min":0,"x_max":0,"o":"m 592 983 l 417 983 l 417 324 b 288 133 417 206 388 133 b 171 240 226 133 182 176 l 7 201 b 296 -25 38 46 142 -25 b 592 272 493 -25 592 115 z "},"K":{"ha":951,"x_min":0,"x_max":0,"o":"m 110 0 l 285 0 l 285 483 l 294 483 l 721 0 l 967 0 l 476 529 l 936 983 l 700 983 l 293 567 l 285 567 l 285 983 l 110 983 z "},"L":{"ha":721,"x_min":0,"x_max":0,"o":"m 110 0 l 703 0 l 703 158 l 285 158 l 285 983 l 110 983 z "},"M":{"ha":1286,"x_min":0,"x_max":0,"o":"m 114 0 l 281 0 l 281 817 l 283 817 l 582 0 l 704 0 l 1003 817 l 1006 817 l 1006 0 l 1172 0 l 1172 983 l 908 983 l 643 294 l 381 983 l 114 983 z "},"N":{"ha":1106,"x_min":0,"x_max":0,"o":"m 110 0 l 285 0 l 285 754 l 288 754 l 774 0 l 996 0 l 996 983 l 821 983 l 821 253 l 818 253 l 342 983 l 110 983 z "},"O":{"ha":1157,"x_min":0,"x_max":0,"o":"m 57 488 b 576 -25 57 181 274 -25 b 1100 493 883 -19 1100 186 b 576 1008 1100 808 883 1014 b 57 488 274 1008 57 803 z m 240 499 b 578 850 240 694 375 850 b 917 499 782 850 917 694 b 578 133 917 289 782 133 b 240 499 375 133 240 289 z "},"P":{"ha":849,"x_min":0,"x_max":0,"o":"m 110 0 l 285 0 l 285 407 l 410 407 b 803 699 618 407 803 451 b 440 983 803 917 631 983 l 110 983 z m 285 557 l 285 833 l 410 833 b 619 696 504 833 619 817 b 390 557 619 563 490 557 z "},"Q":{"ha":1183,"x_min":0,"x_max":0,"o":"m 1165 142 l 883 142 l 883 144 b 1090 513 978 199 1090 307 b 574 1008 1090 801 854 1008 b 57 513 293 1008 57 801 b 593 0 57 193 288 0 l 1165 0 z m 569 850 b 907 508 768 850 907 704 b 572 158 907 307 767 158 b 240 508 381 158 240 307 b 569 850 240 704 379 850 z "},"R":{"ha":875,"x_min":0,"x_max":0,"o":"m 110 0 l 285 0 l 285 417 l 413 417 l 640 0 l 851 0 l 590 435 b 818 701 736 456 818 560 b 451 983 818 922 640 983 l 110 983 z m 285 567 l 285 833 l 436 833 b 635 703 526 833 635 819 b 421 567 635 575 519 567 z "},"S":{"ha":797,"x_min":0,"x_max":0,"o":"m 719 907 b 438 1008 643 979 540 1008 b 75 711 256 1008 75 914 b 542 268 75 360 542 483 b 369 133 542 178 450 133 b 175 236 292 133 218 171 l 43 108 b 365 -25 124 13 243 -25 b 725 289 558 -25 725 78 b 258 724 725 639 258 526 b 419 850 258 814 339 850 b 592 772 488 850 554 825 z "},"T":{"ha":797,"x_min":0,"x_max":0,"o":"m 311 0 l 486 0 l 486 825 l 788 825 l 788 983 l 10 983 l 10 825 l 311 825 z "},"U":{"ha":1003,"x_min":0,"x_max":0,"o":"m 897 983 l 722 983 l 722 367 b 501 142 722 269 669 142 b 281 367 333 142 281 269 l 281 983 l 106 983 l 106 361 b 501 -25 106 124 276 -25 b 897 361 726 -25 897 124 z "},"V":{"ha":926,"x_min":0,"x_max":0,"o":"m 382 0 l 533 0 l 931 983 l 742 983 l 465 240 l 197 983 l -4 983 z "},"W":{"ha":1363,"x_min":0,"x_max":0,"o":"m 290 0 l 451 0 l 679 749 l 682 749 l 910 0 l 1076 0 l 1363 983 l 1185 983 l 992 275 l 989 275 l 772 983 l 600 983 l 379 275 l 376 275 l 192 983 l 0 983 z "},"X":{"ha":951,"x_min":0,"x_max":0,"o":"m 0 0 l 211 0 l 469 415 l 729 0 l 951 0 l 594 514 l 917 983 l 704 983 l 475 619 l 243 983 l 22 983 l 350 514 z "},"Y":{"ha":875,"x_min":0,"x_max":0,"o":"m 350 0 l 525 0 l 525 421 l 894 983 l 686 983 l 442 592 l 200 983 l -19 983 l 350 421 z "},"Z":{"ha":849,"x_min":0,"x_max":0,"o":"m 49 0 l 800 0 l 800 158 l 263 158 l 792 825 l 792 983 l 57 983 l 57 825 l 574 825 l 49 158 z "},"[":{"ha":386,"x_min":0,"x_max":0,"o":"m 358 1017 l 92 1017 l 92 -217 l 358 -217 l 358 -108 l 233 -108 l 233 908 l 358 908 z "},"\\":{"ha":540,"x_min":0,"x_max":0,"o":"m 4 1008 l 438 -67 l 553 -25 l 119 1053 z "},"]":{"ha":386,"x_min":0,"x_max":0,"o":"m 28 -217 l 294 -217 l 294 1017 l 28 1017 l 28 908 l 153 908 l 153 -108 l 28 -108 z "},"^":{"ha":925,"x_min":0,"x_max":0,"o":"m 260 476 l 461 808 l 665 476 l 829 476 l 519 983 l 406 983 l 96 476 z "},"_":{"ha":694,"x_min":0,"x_max":0,"o":"m 694 -174 l 694 -104 l 0 -104 l 0 -174 z "},"‘":{"ha":411,"x_min":0,"x_max":0,"o":"m 339 983 l 190 983 l 72 617 l 242 617 z "},"a":{"ha":746,"x_min":0,"x_max":0,"o":"m 511 0 l 661 0 l 661 383 b 376 683 661 478 661 683 b 93 576 271 683 167 651 l 181 489 b 358 558 225 531 289 558 b 511 433 447 558 511 515 l 511 415 l 469 415 b 50 183 303 415 50 400 b 293 -17 50 51 169 -17 b 507 92 382 -17 460 17 l 511 92 z m 501 261 b 333 108 501 168 447 108 b 217 196 279 108 217 135 b 467 299 217 292 375 299 l 501 299 z "},"b":{"ha":875,"x_min":0,"x_max":0,"o":"m 94 0 l 253 0 l 253 100 l 256 100 b 485 -17 304 19 392 -17 b 814 333 690 -17 814 136 b 492 683 814 531 682 683 b 265 582 367 683 300 625 l 261 582 l 261 1050 l 94 1050 z m 647 333 b 451 133 647 229 574 133 b 256 333 329 133 256 229 b 451 533 256 438 329 533 b 647 333 574 533 647 438 z "},"c":{"ha":669,"x_min":0,"x_max":0,"o":"m 665 582 b 424 683 601 653 508 683 b 61 333 222 683 61 543 b 424 -17 61 124 222 -17 b 664 76 482 -17 596 8 l 553 196 b 424 133 522 156 475 133 b 228 333 301 133 228 229 b 424 533 228 438 301 533 b 550 467 468 533 511 507 z "},"d":{"ha":875,"x_min":0,"x_max":0,"o":"m 622 0 l 781 0 l 781 1050 l 614 1050 l 614 582 l 610 582 b 383 683 575 625 508 683 b 61 333 193 683 61 531 b 390 -17 61 136 185 -17 b 619 100 483 -17 571 19 l 622 100 z m 228 333 b 424 533 228 438 301 533 b 619 333 546 533 619 438 b 424 133 619 229 546 133 b 228 333 301 133 228 229 z "},"e":{"ha":797,"x_min":0,"x_max":0,"o":"m 736 275 l 736 321 b 424 683 736 553 610 683 b 61 333 222 683 61 543 b 424 -17 61 124 222 -17 b 706 117 529 -17 628 21 l 586 207 b 407 117 544 156 490 117 b 228 275 314 117 239 176 z m 228 400 b 400 558 240 496 301 558 b 569 400 504 558 568 497 z "},"f":{"ha":489,"x_min":0,"x_max":0,"o":"m 154 0 l 321 0 l 321 525 l 475 525 l 475 667 l 321 667 l 321 788 b 428 925 321 861 335 925 b 497 915 451 925 474 921 l 508 1057 b 403 1067 474 1064 439 1067 b 154 761 196 1067 154 946 l 154 667 l 17 667 l 17 525 l 154 525 z "},"g":{"ha":875,"x_min":0,"x_max":0,"o":"m 622 667 l 622 567 l 619 567 b 390 683 571 647 483 683 b 61 333 185 683 61 531 b 393 -8 61 144 193 -8 b 611 89 476 -8 563 24 l 614 89 l 614 40 b 403 -183 614 -92 564 -183 b 174 -87 310 -183 240 -149 l 74 -224 b 404 -333 168 -307 281 -333 b 781 60 664 -333 781 -181 l 781 667 z m 425 533 b 622 338 546 533 622 453 b 424 142 622 226 547 142 b 228 335 311 142 228 229 b 425 533 228 453 308 533 z "},"h":{"ha":797,"x_min":0,"x_max":0,"o":"m 261 1050 l 94 1050 l 94 0 l 261 0 l 261 364 b 414 533 261 453 304 533 b 536 338 531 533 536 411 l 536 0 l 703 0 l 703 421 b 460 683 703 557 639 683 b 264 574 357 683 290 629 l 261 574 z "},"i":{"ha":361,"x_min":0,"x_max":0,"o":"m 97 0 l 264 0 l 264 667 l 97 667 z m 74 893 b 179 793 74 840 118 793 b 288 893 240 793 288 836 b 179 993 288 950 240 993 b 74 893 118 993 74 946 z "},"j":{"ha":361,"x_min":0,"x_max":0,"o":"m 97 667 l 97 -42 b 14 -183 97 -103 97 -183 b -39 -176 -4 -183 -21 -181 l -51 -321 b 39 -333 -22 -331 8 -333 b 264 -40 229 -333 264 -207 l 264 667 z m 74 893 b 179 793 74 840 118 793 b 288 893 240 793 288 836 b 179 993 288 950 240 993 b 74 893 118 993 74 946 z "},"k":{"ha":746,"x_min":0,"x_max":0,"o":"m 94 0 l 261 0 l 261 340 l 264 340 l 529 0 l 750 0 l 446 364 l 732 667 l 518 667 l 261 390 l 261 1050 l 94 1050 z "},"l":{"ha":361,"x_min":0,"x_max":0,"o":"m 97 0 l 264 0 l 264 1050 l 97 1050 z "},"m":{"ha":1208,"x_min":0,"x_max":0,"o":"m 88 0 l 254 0 l 254 364 b 407 533 254 453 297 533 b 521 397 488 533 521 479 l 521 0 l 688 0 l 688 361 b 831 533 688 447 726 533 b 954 378 929 533 954 461 l 954 0 l 1121 0 l 1121 397 b 881 683 1121 557 1058 683 b 661 560 781 683 710 644 b 453 683 626 643 556 683 b 249 563 342 683 278 625 l 246 563 l 246 667 l 88 667 z "},"n":{"ha":797,"x_min":0,"x_max":0,"o":"m 94 0 l 261 0 l 261 364 b 414 533 261 453 304 533 b 536 338 531 533 536 411 l 536 0 l 703 0 l 703 421 b 460 683 703 557 639 683 b 256 560 349 683 286 626 l 253 560 l 253 667 l 94 667 z "},"o":{"ha":847,"x_min":0,"x_max":0,"o":"m 61 333 b 424 -17 61 124 222 -17 b 786 333 625 -17 786 124 b 424 683 786 543 625 683 b 61 333 222 683 61 543 z m 228 333 b 424 533 228 438 301 533 b 619 333 546 533 619 438 b 424 133 619 229 546 133 b 228 333 301 133 228 229 z "},"p":{"ha":875,"x_min":0,"x_max":0,"o":"m 94 -317 l 261 -317 l 261 85 l 265 85 b 492 -17 300 42 367 -17 b 814 333 682 -17 814 136 b 485 683 814 531 690 683 b 256 567 392 683 304 647 l 253 567 l 253 667 l 94 667 z m 647 333 b 451 133 647 229 574 133 b 256 333 329 133 256 229 b 451 533 256 438 329 533 b 647 333 574 533 647 438 z "},"q":{"ha":875,"x_min":0,"x_max":0,"o":"m 781 667 l 622 667 l 622 567 l 619 567 b 390 683 571 647 483 683 b 61 333 185 683 61 531 b 383 -17 61 136 193 -17 b 610 85 508 -17 575 42 l 614 85 l 614 -317 l 781 -317 z m 228 333 b 424 533 228 438 301 533 b 619 333 546 533 619 438 b 424 133 619 229 546 133 b 228 333 301 133 228 229 z "},"r":{"ha":540,"x_min":0,"x_max":0,"o":"m 94 0 l 261 0 l 261 357 b 440 525 261 393 283 525 b 521 513 467 525 493 519 l 521 674 b 461 683 501 679 482 683 b 264 561 374 683 300 638 l 261 561 l 261 667 l 94 667 z "},"s":{"ha":617,"x_min":0,"x_max":0,"o":"m 561 582 b 324 683 507 656 413 683 b 56 468 189 683 56 617 b 415 185 56 214 415 322 b 304 108 415 132 353 108 b 146 190 233 108 189 143 l 35 86 b 294 -17 103 10 192 -17 b 582 197 431 -17 582 39 b 222 479 582 457 222 360 b 319 550 222 529 275 550 b 450 482 376 550 418 526 z "},"t":{"ha":540,"x_min":0,"x_max":0,"o":"m 154 525 l 154 219 b 372 -17 154 63 196 -17 b 504 6 411 -17 469 -11 l 504 146 b 414 125 483 131 443 125 b 321 233 340 125 321 167 l 321 525 l 504 525 l 504 667 l 321 667 l 321 860 l 154 860 l 154 667 l 17 667 l 17 525 z "},"u":{"ha":797,"x_min":0,"x_max":0,"o":"m 703 667 l 536 667 l 536 303 b 383 133 536 214 493 133 b 261 329 267 133 261 256 l 261 667 l 94 667 l 94 246 b 338 -17 94 110 158 -17 b 542 107 449 -17 511 40 l 544 107 l 544 0 l 703 0 z "},"v":{"ha":721,"x_min":0,"x_max":0,"o":"m 276 0 l 454 0 l 717 667 l 546 667 l 367 200 l 364 200 l 186 667 l 4 667 z "},"w":{"ha":1106,"x_min":0,"x_max":0,"o":"m 236 0 l 408 0 l 549 456 l 551 456 l 710 0 l 875 0 l 1101 667 l 933 667 l 794 200 l 792 200 l 647 667 l 467 667 l 332 200 l 329 200 l 185 667 l 4 667 z "},"x":{"ha":746,"x_min":0,"x_max":0,"o":"m -1 0 l 196 0 l 371 239 l 544 0 l 747 0 l 479 358 l 707 667 l 517 667 l 372 467 l 239 667 l 36 667 l 267 358 z "},"y":{"ha":721,"x_min":0,"x_max":0,"o":"m 289 -6 l 257 -85 b 125 -183 229 -154 207 -183 b 40 -167 96 -183 67 -176 l 19 -317 b 147 -333 61 -328 104 -333 b 401 -143 294 -333 353 -268 l 717 667 l 543 667 l 376 204 l 374 204 l 188 667 l 4 667 z "},"z":{"ha":669,"x_min":0,"x_max":0,"o":"m 47 0 l 622 0 l 622 133 l 244 133 l 606 515 l 606 667 l 64 667 l 64 533 l 404 533 l 404 531 l 47 154 z "},"{":{"ha":386,"x_min":0,"x_max":0,"o":"m 0 339 b 131 232 39 339 131 319 l 131 -33 b 308 -217 131 -158 249 -217 l 435 -217 l 435 -100 l 358 -100 b 272 -3 279 -100 272 -43 l 272 250 b 136 399 271 379 181 394 l 136 401 b 272 542 181 407 271 433 l 272 803 b 358 900 272 843 279 900 l 435 900 l 435 1017 l 308 1017 b 131 833 249 1017 131 958 l 131 558 b 0 461 131 479 39 461 z "},"|":{"ha":308,"x_min":0,"x_max":0,"o":"m 83 1042 l 83 -347 l 225 -347 l 225 1042 z "},"}":{"ha":386,"x_min":0,"x_max":0,"o":"m 386 461 b 256 568 347 461 256 481 l 256 833 b 78 1017 256 958 138 1017 l -49 1017 l -49 900 l 28 900 b 114 803 107 900 114 843 l 114 550 b 250 401 115 421 206 406 l 250 399 b 114 258 206 393 115 367 l 114 -3 b 28 -100 114 -43 107 -100 l -49 -100 l -49 -217 l 78 -217 b 256 -33 138 -217 256 -158 l 256 242 b 386 339 256 321 347 339 z "},"~":{"ha":925,"x_min":0,"x_max":0,"o":"m 735 535 b 611 440 703 492 668 440 b 471 490 575 440 522 468 b 310 535 418 514 364 535 b 140 415 221 535 171 474 l 190 299 b 310 393 213 342 246 393 b 469 344 374 393 425 369 b 611 299 515 319 560 299 b 785 418 697 299 743 360 z "},"¡":{"ha":411,"x_min":0,"x_max":0,"o":"m 122 -308 l 289 -308 l 289 368 l 122 368 z m 317 578 b 206 683 317 638 264 683 b 94 575 144 683 94 635 b 206 469 94 515 146 469 b 317 578 267 469 317 518 z "},"¢":{"ha":822,"x_min":0,"x_max":0,"o":"m 492 776 l 417 776 l 417 683 b 108 335 226 658 108 528 b 417 -17 108 147 226 0 l 417 -117 l 492 -117 l 492 -17 b 728 79 578 -14 668 14 l 626 189 b 492 125 593 151 543 125 l 492 542 b 621 479 542 539 586 515 l 728 588 b 492 683 671 656 579 681 z m 417 125 b 267 333 318 150 267 236 b 417 540 267 435 314 519 z "},"£":{"ha":822,"x_min":0,"x_max":0,"o":"m 92 0 l 751 0 l 751 133 l 400 133 l 400 438 l 625 438 l 625 554 l 400 554 l 400 679 b 561 850 400 767 458 850 b 708 790 619 850 668 828 l 821 911 b 556 1000 753 972 654 1000 b 233 693 326 1000 233 831 l 233 554 l 92 554 l 92 438 l 233 438 l 233 133 l 92 133 z "},"⁄":{"ha":232,"x_min":0,"x_max":0,"o":"m -231 8 l -115 -44 l 463 975 l 347 1028 z "},"¥":{"ha":822,"x_min":0,"x_max":0,"o":"m 328 0 l 494 0 l 494 246 l 731 246 l 731 354 l 494 354 l 494 421 l 521 468 l 731 468 l 731 576 l 581 576 l 806 983 l 626 983 l 419 575 l 204 983 l 17 983 l 242 576 l 92 576 l 92 468 l 301 468 l 328 421 l 328 354 l 92 354 l 92 246 l 328 246 z "},"ƒ":{"ha":822,"x_min":0,"x_max":0,"o":"m 667 592 l 497 592 l 522 708 b 635 850 536 774 553 850 b 711 828 661 850 688 842 l 775 957 b 613 1000 724 985 672 1000 b 363 746 450 1000 390 885 l 332 592 l 150 592 l 150 467 l 307 467 l 233 93 b 122 -51 217 10 194 -51 b 57 -32 100 -51 75 -44 l -6 -160 b 136 -193 38 -182 88 -193 b 396 67 281 -193 361 -110 l 475 467 l 667 467 z "},"§":{"ha":824,"x_min":0,"x_max":0,"o":"m 699 868 b 417 1008 646 972 525 1008 b 133 779 279 1008 133 933 b 225 621 133 710 168 657 b 92 415 146 578 92 517 b 508 32 92 157 508 185 b 381 -58 508 -36 438 -58 b 222 43 313 -58 242 -26 l 74 -29 b 382 -200 131 -157 250 -200 b 692 46 528 -200 692 -122 b 607 211 692 113 661 171 b 725 389 675 243 725 313 b 308 783 725 653 308 629 b 421 875 308 847 365 875 b 553 786 479 875 533 842 z m 368 332 b 250 450 315 356 250 382 b 331 547 250 504 286 526 l 454 489 b 567 367 506 460 567 436 b 503 269 567 329 536 288 z "},"¤":{"ha":822,"x_min":0,"x_max":0,"o":"m 133 132 l 201 200 b 411 132 263 156 333 132 b 621 200 490 132 563 157 l 689 132 l 772 215 l 704 283 b 772 493 747 343 772 415 b 704 703 772 571 749 642 l 772 771 l 689 853 l 621 786 b 411 853 563 828 490 853 b 201 786 332 853 260 828 l 133 853 l 50 771 l 118 703 b 50 493 75 643 50 571 b 118 283 50 414 75 342 l 50 215 z m 208 493 b 411 703 208 621 288 703 b 614 493 535 703 614 621 b 411 282 614 365 535 282 b 208 493 288 282 208 365 z "},"'":{"ha":411,"x_min":0,"x_max":0,"o":"m 135 617 l 276 617 l 276 983 l 135 983 z "},"“":{"ha":721,"x_min":0,"x_max":0,"o":"m 347 983 l 199 983 l 81 617 l 250 617 z m 640 983 l 492 983 l 374 617 l 543 617 z "},"«":{"ha":721,"x_min":0,"x_max":0,"o":"m 357 585 l 253 656 l 42 344 l 253 31 l 358 101 l 197 344 z m 667 585 l 563 656 l 351 344 l 563 31 l 668 101 l 507 344 z "},"‹":{"ha":411,"x_min":0,"x_max":0,"o":"m 357 585 l 253 656 l 42 344 l 253 31 l 358 101 l 197 344 z "},"›":{"ha":411,"x_min":0,"x_max":0,"o":"m 54 101 l 158 31 l 369 342 l 158 656 l 53 585 l 214 342 z "},"ﬁ":{"ha":824,"x_min":0,"x_max":0,"o":"m 154 0 l 321 0 l 321 525 l 475 525 l 475 667 l 321 667 l 321 788 b 428 925 321 861 335 925 b 497 915 451 925 474 921 l 508 1057 b 403 1067 474 1064 439 1067 b 154 761 196 1067 154 946 l 154 667 l 17 667 l 17 525 l 154 525 z m 583 0 l 750 0 l 750 667 l 583 667 z m 561 893 b 667 793 561 840 606 793 b 775 893 728 793 775 836 b 667 993 775 950 728 993 b 561 893 606 993 561 946 z "},"ﬂ":{"ha":824,"x_min":0,"x_max":0,"o":"m 154 0 l 321 0 l 321 525 l 475 525 l 475 667 l 321 667 l 321 788 b 428 925 321 861 335 925 b 497 915 451 925 474 921 l 508 1057 b 403 1067 474 1064 439 1067 b 154 761 196 1067 154 946 l 154 667 l 17 667 l 17 525 l 154 525 z m 583 0 l 750 0 l 750 1050 l 583 1050 z "},"–":{"ha":694,"x_min":0,"x_max":0,"o":"m 694 408 l 0 408 l 0 275 l 694 275 z "},"†":{"ha":824,"x_min":0,"x_max":0,"o":"m 490 983 l 332 983 l 332 701 l 57 701 l 57 568 l 332 568 l 332 -175 l 490 -175 l 490 568 l 767 568 l 767 701 l 490 701 z "},"‡":{"ha":824,"x_min":0,"x_max":0,"o":"m 490 983 l 332 983 l 332 726 l 65 726 l 65 593 l 332 593 l 332 217 l 65 217 l 65 83 l 332 83 l 332 -175 l 490 -175 l 490 83 l 758 83 l 758 217 l 490 217 l 490 593 l 758 593 l 758 726 l 490 726 z "},"·":{"ha":411,"x_min":0,"x_max":0,"o":"m 94 404 b 206 299 94 344 147 299 b 317 407 267 299 317 347 b 206 513 317 467 265 513 b 94 404 144 513 94 464 z "},"¶":{"ha":833,"x_min":0,"x_max":0,"o":"m 342 -175 l 467 -175 l 467 883 l 615 883 l 615 -175 l 740 -175 l 740 983 l 367 983 b 43 722 174 983 43 908 b 342 469 43 576 161 469 z "},"•":{"ha":694,"x_min":0,"x_max":0,"o":"m 101 492 b 347 246 101 356 211 246 b 593 492 483 246 593 356 b 347 738 593 628 483 738 b 101 492 211 738 101 628 z "},"‚":{"ha":411,"x_min":0,"x_max":0,"o":"m 72 -175 l 221 -175 l 339 192 l 169 192 z "},"„":{"ha":721,"x_min":0,"x_max":0,"o":"m 372 -175 l 521 -175 l 639 192 l 469 192 z m 82 -175 l 231 -175 l 349 192 l 179 192 z "},"”":{"ha":721,"x_min":0,"x_max":0,"o":"m 374 617 l 522 617 l 640 983 l 471 983 z m 81 617 l 229 617 l 347 983 l 178 983 z "},"»":{"ha":721,"x_min":0,"x_max":0,"o":"m 364 101 l 468 31 l 679 342 l 468 656 l 363 585 l 524 342 z m 54 101 l 158 31 l 369 342 l 158 656 l 53 585 l 214 342 z "},"…":{"ha":1389,"x_min":0,"x_max":0,"o":"m 121 97 b 232 -8 121 38 174 -8 b 343 100 293 -8 343 40 b 232 206 343 160 292 206 b 121 97 171 206 121 157 z m 583 97 b 694 -8 583 38 636 -8 b 806 100 756 -8 806 40 b 694 206 806 160 754 206 b 583 97 633 206 583 157 z m 1046 97 b 1157 -8 1046 38 1099 -8 b 1268 100 1218 -8 1268 40 b 1157 206 1268 160 1217 206 b 1046 97 1096 206 1046 157 z "},"‰":{"ha":1621,"x_min":0,"x_max":0,"o":"m 571 229 b 815 -17 571 94 681 -17 b 1061 229 950 -17 1061 94 b 815 474 1061 364 950 474 b 571 229 681 474 571 364 z m 696 229 b 815 349 696 299 746 349 b 936 229 885 349 936 299 b 815 108 936 160 885 108 b 696 229 746 108 696 160 z m 1121 229 b 1365 -17 1121 94 1231 -17 b 1611 229 1500 -17 1611 94 b 1365 474 1611 364 1500 474 b 1121 229 1231 474 1121 364 z m 1246 229 b 1365 349 1246 299 1296 349 b 1486 229 1435 349 1486 299 b 1365 108 1486 160 1435 108 b 1246 229 1296 108 1246 160 z m 10 756 b 254 510 10 621 119 510 b 500 756 389 510 500 621 b 254 1000 500 890 389 1000 b 10 756 119 1000 10 890 z m 135 756 b 254 875 135 825 185 875 b 375 756 324 875 375 825 b 254 635 375 686 324 635 b 135 756 185 635 135 686 z m 186 8 l 301 -44 l 879 975 l 764 1028 z "},"¿":{"ha":721,"x_min":0,"x_max":0,"o":"m 263 385 l 263 332 b 189 193 263 260 240 242 b 38 -62 108 117 38 58 b 331 -333 38 -237 165 -333 b 654 -53 507 -333 633 -229 l 476 -39 b 338 -175 469 -114 415 -175 b 213 -53 265 -175 213 -125 b 247 38 213 -18 224 14 l 354 146 b 429 308 411 204 429 225 l 429 385 z m 457 578 b 346 683 457 638 404 683 b 235 575 285 683 235 635 b 346 469 235 515 286 469 b 457 578 407 469 457 518 z "},"`":{"ha":361,"x_min":0,"x_max":0,"o":"m 108 983 l -81 983 l 115 783 l 246 783 z "},"´":{"ha":361,"x_min":0,"x_max":0,"o":"m 115 783 l 246 783 l 442 983 l 253 983 z "},"ˆ":{"ha":361,"x_min":0,"x_max":0,"o":"m 433 783 l 275 983 l 88 983 l -72 783 l 83 783 l 179 908 l 275 783 z "},"˜":{"ha":361,"x_min":0,"x_max":0,"o":"m 17 789 b 81 849 26 819 43 849 b 281 796 125 849 206 796 b 436 972 385 796 421 883 l 344 972 b 281 914 335 942 318 914 b 81 965 236 914 156 965 b -75 789 -24 965 -60 878 z "},"¯":{"ha":361,"x_min":0,"x_max":0,"o":"m 403 935 l -42 935 l -42 826 l 403 826 z "},"˘":{"ha":361,"x_min":0,"x_max":0,"o":"m -56 983 b 179 783 -47 844 47 783 b 417 983 311 783 403 847 l 325 983 b 181 892 306 906 260 892 b 38 983 110 892 50 914 z "},"˙":{"ha":361,"x_min":0,"x_max":0,"o":"m 74 883 b 179 783 74 831 118 783 b 288 883 240 783 288 826 b 179 983 288 940 240 983 b 74 883 118 983 74 936 z "},"¨":{"ha":361,"x_min":0,"x_max":0,"o":"m -69 883 b 36 783 -69 831 -25 783 b 144 883 97 783 144 826 b 36 983 144 940 97 983 b -69 883 -25 983 -69 936 z m 217 883 b 322 783 217 831 261 783 b 431 883 383 783 431 826 b 322 983 431 940 383 983 b 217 883 261 983 217 936 z "},"˚":{"ha":361,"x_min":0,"x_max":0,"o":"m 326 910 b 181 1051 326 992 263 1051 b 35 908 97 1051 35 990 b 181 768 35 828 99 768 b 326 910 263 768 326 828 z m 260 910 b 181 835 260 865 222 835 b 101 910 139 835 101 867 b 181 985 101 953 139 985 b 260 910 222 985 260 953 z "},"¸":{"ha":361,"x_min":0,"x_max":0,"o":"m 304 0 l 224 0 l 138 -125 l 175 -160 b 226 -150 192 -154 208 -150 b 297 -200 256 -150 297 -164 b 218 -258 297 -246 249 -258 b 104 -231 178 -258 139 -249 l 74 -294 b 221 -333 118 -319 169 -333 b 414 -199 304 -333 414 -300 b 246 -83 414 -92 328 -83 z "},"˝":{"ha":361,"x_min":0,"x_max":0,"o":"m -28 783 l 103 783 l 299 983 l 110 983 z m 257 783 l 388 783 l 583 983 l 394 983 z "},"˛":{"ha":361,"x_min":0,"x_max":0,"o":"m 246 -204 b 171 -233 226 -221 197 -233 b 107 -169 136 -233 107 -204 b 222 8 107 -108 179 -29 l 138 8 b -1 -201 78 -37 -1 -122 b 142 -325 -1 -282 68 -325 b 281 -272 193 -325 242 -303 z "},"ˇ":{"ha":361,"x_min":0,"x_max":0,"o":"m -71 983 l 88 783 l 272 783 l 432 983 l 279 983 l 183 858 l 88 983 z "},"—":{"ha":1389,"x_min":0,"x_max":0,"o":"m 1389 408 l 0 408 l 0 275 l 1389 275 z "},"Æ":{"ha":1389,"x_min":0,"x_max":0,"o":"m 735 0 l 1326 0 l 1326 158 l 910 158 l 910 425 l 1285 425 l 1285 583 l 910 583 l 910 825 l 1310 825 l 1310 983 l 621 983 l -8 0 l 204 0 l 363 258 l 735 258 z m 454 408 l 714 825 l 735 825 l 735 408 z "},"ª":{"ha":485,"x_min":0,"x_max":0,"o":"m 338 599 l 446 599 l 446 833 b 258 1000 446 946 392 1000 b 67 938 185 1000 115 981 l 126 864 b 242 908 160 892 196 908 b 338 863 296 908 338 894 l 338 851 l 314 851 b 39 713 204 851 39 843 b 192 590 39 611 144 590 b 335 653 244 590 307 607 l 338 653 z m 332 768 l 332 760 b 225 674 332 710 304 674 b 156 717 190 674 156 689 b 293 768 156 764 247 768 z "},"Ł":{"ha":721,"x_min":0,"x_max":0,"o":"m 110 0 l 703 0 l 703 158 l 285 158 l 285 414 l 571 667 l 571 818 l 285 567 l 285 983 l 110 983 l 110 413 l 13 326 l 13 174 l 110 260 z "},"Ø":{"ha":1157,"x_min":0,"x_max":0,"o":"m 304 274 b 240 499 264 335 240 413 b 578 850 240 694 375 850 b 776 788 654 850 721 828 z m 842 724 b 917 499 890 665 917 586 b 578 133 917 289 782 133 b 367 206 494 133 424 160 z m 1017 1049 l 896 918 b 576 1008 808 978 700 1011 b 57 488 274 1008 57 803 b 182 140 57 347 103 229 l 61 10 l 131 -50 l 249 78 b 576 -25 335 13 449 -25 b 1100 493 883 -19 1100 186 b 965 858 1100 643 1051 768 l 1085 989 z "},"Œ":{"ha":1389,"x_min":0,"x_max":0,"o":"m 896 825 l 1296 825 l 1296 983 l 629 983 b 69 492 275 983 69 772 b 629 0 69 214 275 0 l 1319 0 l 1319 158 l 896 158 l 896 425 l 1271 425 l 1271 583 l 896 583 z m 721 158 l 633 158 b 261 492 506 158 261 222 b 633 825 261 761 506 825 l 721 825 z "},"º":{"ha":551,"x_min":0,"x_max":0,"o":"m 274 590 b 508 794 404 590 508 674 b 274 1000 508 917 404 1000 b 43 794 144 1000 43 917 b 274 590 40 674 144 590 z m 274 690 b 157 794 196 690 157 747 b 274 900 157 843 196 900 b 392 794 351 900 392 843 b 274 690 392 747 351 690 z "},"æ":{"ha":1183,"x_min":0,"x_max":0,"o":"m 1133 329 b 813 683 1133 525 1029 683 b 597 586 717 685 650 644 b 376 685 543 656 454 688 b 93 578 271 685 167 653 l 181 490 b 358 560 225 532 289 560 b 508 400 457 560 508 497 l 372 400 b 50 185 167 400 50 343 b 293 -15 50 46 175 -15 b 561 103 404 -15 503 13 b 810 -17 608 36 697 -17 b 1103 117 931 -17 1029 22 l 988 199 b 810 108 946 147 892 108 b 647 283 739 108 643 175 l 1133 283 z m 332 110 b 217 196 288 110 217 132 b 425 283 217 269 333 283 l 508 283 l 508 267 b 332 110 508 189 444 110 z m 650 400 b 811 558 656 492 719 558 b 972 400 908 558 967 494 z "},"ı":{"ha":361,"x_min":0,"x_max":0,"o":"m 97 0 l 264 0 l 264 667 l 97 667 z "},"ł":{"ha":361,"x_min":0,"x_max":0,"o":"m 97 0 l 264 0 l 264 549 l 360 643 l 360 792 l 264 696 l 264 1050 l 97 1050 l 97 531 l 1 435 l 1 283 l 97 379 z "},"ø":{"ha":847,"x_min":0,"x_max":0,"o":"m 260 222 b 228 333 239 254 228 293 b 424 533 228 438 301 533 b 533 500 467 533 504 521 z m 590 442 b 619 333 610 410 619 372 b 424 133 619 229 546 133 b 315 165 381 133 344 144 z m 746 714 l 647 614 b 424 683 586 658 508 683 b 61 333 222 683 61 543 b 143 104 61 242 92 163 l 50 10 l 106 -47 l 203 51 b 424 -17 263 8 339 -17 b 786 333 625 -17 786 124 b 707 560 786 424 756 501 l 804 658 z "},"œ":{"ha":1286,"x_min":0,"x_max":0,"o":"m 1236 283 l 1236 329 b 915 683 1236 525 1132 683 b 668 575 815 683 728 649 b 413 683 601 649 511 683 b 50 333 211 683 50 543 b 413 -17 50 124 211 -17 b 665 90 510 -17 599 17 b 913 -17 717 22 803 -17 b 1206 125 1033 -17 1132 22 l 1090 207 b 913 117 1049 156 994 117 b 750 283 842 117 746 183 z m 744 400 b 915 558 747 504 836 558 b 1069 400 1004 558 1068 497 z m 217 333 b 413 542 217 446 290 542 b 611 333 538 542 611 446 b 413 125 611 221 538 125 b 217 333 290 125 217 221 z "},"ß":{"ha":849,"x_min":0,"x_max":0,"o":"m 78 0 l 244 0 l 244 749 b 406 917 244 844 294 917 b 546 788 482 917 546 864 b 401 657 546 706 483 657 l 390 657 l 390 515 l 410 515 b 621 317 533 515 621 447 b 421 125 621 199 538 125 b 344 139 393 125 369 128 l 344 -1 b 461 -17 383 -12 422 -17 b 788 303 651 -17 788 113 b 565 588 788 447 714 568 l 565 590 b 713 810 660 629 713 708 b 411 1067 713 981 572 1067 b 78 710 188 1067 78 961 z "},"¹":{"ha":535,"x_min":0,"x_max":0,"o":"m 249 401 l 390 401 l 390 992 l 264 992 l 56 829 l 132 738 l 249 842 z "},"¬":{"ha":925,"x_min":0,"x_max":0,"o":"m 697 204 l 839 204 l 839 617 l 86 617 l 86 475 l 697 475 z "},"µ":{"ha":797,"x_min":0,"x_max":0,"o":"m 94 667 l 94 -317 l 261 -317 l 261 -7 b 338 -17 283 -14 308 -17 b 542 107 449 -17 511 40 l 544 107 l 544 0 l 703 0 l 703 667 l 536 667 l 536 303 b 383 133 536 214 493 133 b 261 329 267 133 261 256 l 261 667 z "},"™":{"ha":1389,"x_min":0,"x_max":0,"o":"m 225 411 l 367 411 l 367 858 l 536 858 l 536 983 l 56 983 l 56 858 l 225 858 z m 667 411 l 808 411 l 808 783 l 811 783 l 951 411 l 1049 411 l 1189 783 l 1192 783 l 1192 411 l 1333 411 l 1333 983 l 1136 983 l 1000 611 l 864 983 l 667 983 z "},"Ð":{"ha":1054,"x_min":0,"x_max":0,"o":"m 110 0 l 476 0 b 997 492 713 0 997 156 b 497 983 997 825 756 983 l 110 983 l 110 567 l 18 567 l 18 450 l 110 450 z m 285 158 l 285 450 l 585 450 l 585 567 l 285 567 l 285 825 l 444 825 b 814 492 658 825 814 731 b 415 158 814 253 635 158 z "},"½":{"ha":1235,"x_min":0,"x_max":0,"o":"m 238 401 l 379 401 l 379 992 l 253 992 l 44 829 l 121 738 l 238 842 z m 743 0 l 1190 0 l 1190 117 l 915 117 l 915 119 l 1110 269 b 1190 421 1163 310 1190 360 b 978 599 1190 539 1100 599 b 751 407 851 599 760 539 l 885 399 b 971 474 888 440 921 474 b 1049 419 1013 474 1049 458 b 992 343 1049 392 1017 365 l 743 132 z m 258 8 l 374 -44 l 951 975 l 836 1028 z "},"±":{"ha":925,"x_min":0,"x_max":0,"o":"m 393 599 l 86 599 l 86 457 l 393 457 l 393 258 l 535 258 l 535 457 l 839 457 l 839 599 l 535 599 l 535 797 l 393 797 z m 86 44 l 839 44 l 839 186 l 86 186 z "},"Þ":{"ha":849,"x_min":0,"x_max":0,"o":"m 110 0 l 285 0 l 285 217 l 410 217 b 803 508 618 217 803 261 b 440 793 803 726 631 793 l 285 793 l 285 983 l 110 983 z m 285 367 l 285 643 l 410 643 b 619 506 504 643 619 626 b 390 367 619 372 490 367 z "},"¼":{"ha":1235,"x_min":0,"x_max":0,"o":"m 979 0 l 1121 0 l 1121 118 l 1194 118 l 1194 235 l 1121 235 l 1121 590 l 965 590 l 704 226 l 704 118 l 979 118 z m 979 235 l 846 235 l 978 424 l 979 421 z m 233 401 l 375 401 l 375 992 l 249 992 l 40 829 l 117 738 l 233 842 z m 256 8 l 371 -44 l 949 975 l 833 1028 z "},"÷":{"ha":925,"x_min":0,"x_max":0,"o":"m 86 492 l 86 350 l 839 350 l 839 492 z m 358 671 b 463 567 358 614 406 567 b 567 671 519 567 567 614 b 463 775 567 728 519 775 b 358 671 406 775 358 728 z m 358 171 b 463 67 358 114 406 67 b 567 171 519 67 567 114 b 463 275 567 228 519 275 b 358 171 406 275 358 228 z "},"¦":{"ha":308,"x_min":0,"x_max":0,"o":"m 83 938 l 83 451 l 225 451 l 225 938 z m 83 243 l 83 -243 l 225 -243 l 225 243 z "},"°":{"ha":556,"x_min":0,"x_max":0,"o":"m 56 778 b 278 556 56 656 156 556 b 500 778 400 556 500 656 b 278 1000 500 900 400 1000 b 56 778 156 1000 56 900 z m 164 778 b 278 892 164 840 215 892 b 392 778 340 892 392 840 b 278 664 392 715 340 664 b 164 778 215 664 164 715 z "},"þ":{"ha":875,"x_min":0,"x_max":0,"o":"m 94 -317 l 261 -317 l 261 85 l 265 85 b 492 -17 300 42 367 -17 b 814 333 682 -17 814 136 b 485 683 814 531 690 683 b 264 581 392 683 304 647 l 261 581 l 261 1050 l 94 1050 z m 647 333 b 451 133 647 229 574 133 b 256 333 329 133 256 229 b 451 533 256 438 329 533 b 647 333 574 533 647 438 z "},"¾":{"ha":1235,"x_min":0,"x_max":0,"o":"m 993 218 l 826 218 l 826 221 l 990 465 l 993 465 z m 989 0 l 1131 0 l 1131 118 l 1203 118 l 1203 235 l 1131 235 l 1131 590 l 975 590 l 714 226 l 714 118 l 989 118 z m 197 650 l 229 650 b 350 585 290 650 350 649 b 261 518 350 536 311 518 b 175 588 211 518 183 544 l 32 557 b 261 393 58 439 147 393 b 492 571 386 393 492 451 b 371 710 492 639 447 700 l 371 713 b 481 842 442 725 481 776 b 265 1000 481 949 378 1000 b 38 842 157 1000 65 960 l 181 814 b 265 875 190 853 224 875 b 339 829 310 875 339 858 b 242 767 339 776 292 767 l 197 767 z m 293 8 l 408 -44 l 986 975 l 871 1028 z "},"²":{"ha":535,"x_min":0,"x_max":0,"o":"m 43 401 l 492 401 l 492 518 l 217 518 l 217 521 l 411 671 b 492 822 464 711 492 761 b 279 1000 492 940 401 1000 b 53 808 153 1000 61 940 l 186 800 b 272 875 189 842 222 875 b 350 821 314 875 350 860 b 293 744 350 793 318 767 l 43 533 z "},"®":{"ha":1111,"x_min":0,"x_max":0,"o":"m 357 226 l 490 226 l 490 435 l 522 435 l 646 226 l 792 226 l 653 442 b 775 608 711 450 775 511 b 531 768 775 739 656 768 l 357 768 z m 489 660 l 554 660 b 642 601 588 660 642 657 b 554 543 642 544 588 543 l 489 543 z m 39 492 b 556 -25 39 207 271 -25 b 1072 492 840 -25 1072 207 b 556 1008 1072 776 840 1008 b 39 492 271 1008 39 776 z m 172 492 b 556 892 172 715 340 892 b 939 492 771 892 939 715 b 556 92 939 268 771 92 b 172 492 340 92 172 268 z "},"−":{"ha":925,"x_min":0,"x_max":0,"o":"m 86 492 l 86 350 l 839 350 l 839 492 z "},"ð":{"ha":847,"x_min":0,"x_max":0,"o":"m 614 1067 l 460 996 b 342 1100 439 1015 392 1061 l 203 1019 b 310 929 231 996 285 956 l 161 860 l 244 781 l 392 849 l 396 844 b 571 633 461 778 524 710 l 568 631 b 410 683 528 669 471 683 b 61 333 222 683 61 543 b 424 -17 61 124 222 -17 b 786 385 663 -17 786 153 b 540 914 786 593 674 768 l 703 989 z m 424 133 b 228 333 301 133 228 229 b 424 533 228 438 301 533 b 619 333 546 533 619 438 b 424 133 619 229 546 133 z "},"×":{"ha":925,"x_min":0,"x_max":0,"o":"m 208 774 l 108 675 l 364 417 l 107 164 l 210 63 l 461 314 l 715 63 l 818 165 l 561 424 l 813 675 l 715 772 l 463 519 z "},"³":{"ha":535,"x_min":0,"x_max":0,"o":"m 203 650 l 235 650 b 356 585 296 650 356 649 b 267 518 356 536 317 518 b 181 588 217 518 189 544 l 38 557 b 267 393 64 439 153 393 b 497 571 392 393 497 451 b 376 710 497 639 453 700 l 376 713 b 486 842 447 725 486 776 b 271 1000 486 949 383 1000 b 43 842 163 1000 71 960 l 186 814 b 271 875 196 853 229 875 b 344 829 315 875 344 858 b 247 767 344 776 297 767 l 203 767 z "},"©":{"ha":1111,"x_min":0,"x_max":0,"o":"m 686 413 b 575 315 682 340 633 315 b 426 499 478 315 426 396 b 578 671 426 599 471 671 b 686 586 628 671 674 650 l 817 586 b 567 788 796 721 692 788 b 293 496 389 788 293 667 b 569 199 293 329 394 199 b 817 413 690 199 797 274 z m 39 492 b 556 -25 39 207 271 -25 b 1072 492 840 -25 1072 207 b 556 1008 1072 776 840 1008 b 39 492 271 1008 39 776 z m 172 492 b 556 892 172 715 340 892 b 939 492 771 892 939 715 b 556 92 939 268 771 92 b 172 492 340 92 172 268 z "},"Á":{"ha":1003,"x_min":0,"x_max":0,"o":"m 0 0 l 196 0 l 285 225 l 711 225 l 803 0 l 1003 0 l 579 983 l 428 983 z m 344 375 l 499 775 l 650 375 z m 436 1050 l 567 1050 l 763 1250 l 574 1250 z "},"Â":{"ha":1003,"x_min":0,"x_max":0,"o":"m 0 0 l 196 0 l 285 225 l 711 225 l 803 0 l 1003 0 l 579 983 l 428 983 z m 344 375 l 499 775 l 650 375 z m 754 1050 l 596 1250 l 408 1250 l 249 1050 l 404 1050 l 500 1175 l 596 1050 z "},"Ä":{"ha":1003,"x_min":0,"x_max":0,"o":"m 0 0 l 196 0 l 285 225 l 711 225 l 803 0 l 1003 0 l 579 983 l 428 983 z m 344 375 l 499 775 l 650 375 z m 251 1150 b 357 1050 251 1097 296 1050 b 465 1150 418 1050 465 1093 b 357 1250 465 1207 418 1250 b 251 1150 296 1250 251 1203 z m 538 1150 b 643 1050 538 1097 582 1050 b 751 1150 704 1050 751 1093 b 643 1250 751 1207 704 1250 b 538 1150 582 1250 538 1203 z "},"À":{"ha":1003,"x_min":0,"x_max":0,"o":"m 0 0 l 196 0 l 285 225 l 711 225 l 803 0 l 1003 0 l 579 983 l 428 983 z m 344 375 l 499 775 l 650 375 z m 429 1250 l 240 1250 l 436 1050 l 567 1050 z "},"Å":{"ha":1003,"x_min":0,"x_max":0,"o":"m 0 0 l 196 0 l 285 225 l 711 225 l 803 0 l 1003 0 l 579 983 l 428 983 z m 344 375 l 499 775 l 650 375 z m 647 1163 b 501 1304 647 1244 583 1304 b 356 1161 418 1304 356 1243 b 501 1021 356 1081 419 1021 b 647 1163 583 1021 647 1081 z m 581 1163 b 501 1088 581 1118 543 1088 b 422 1163 460 1088 422 1119 b 501 1238 422 1206 460 1238 b 581 1163 543 1238 581 1206 z "},"Ã":{"ha":1003,"x_min":0,"x_max":0,"o":"m 0 0 l 196 0 l 285 225 l 711 225 l 803 0 l 1003 0 l 579 983 l 428 983 z m 344 375 l 499 775 l 650 375 z m 338 1056 b 401 1115 347 1086 364 1115 b 601 1063 446 1115 526 1063 b 757 1239 706 1063 742 1150 l 665 1239 b 601 1181 656 1208 639 1181 b 401 1232 557 1181 476 1232 b 246 1056 297 1232 261 1144 z "},"Ç":{"ha":951,"x_min":0,"x_max":0,"o":"m 921 853 b 576 1008 824 965 710 1008 b 57 488 274 1008 57 803 b 504 -21 57 206 239 10 l 433 -125 l 471 -160 b 522 -150 488 -154 504 -150 b 593 -200 551 -150 593 -164 b 514 -258 593 -246 544 -258 b 400 -231 474 -258 435 -249 l 369 -294 b 517 -333 414 -319 465 -333 b 710 -199 600 -333 710 -300 b 542 -83 710 -92 624 -83 l 582 -25 b 943 150 725 -24 856 29 l 799 253 b 578 133 733 169 657 133 b 240 499 375 133 240 289 b 578 850 240 694 375 850 b 785 753 646 850 713 829 z "},"É":{"ha":849,"x_min":0,"x_max":0,"o":"m 110 0 l 786 0 l 786 158 l 285 158 l 285 425 l 736 425 l 736 583 l 285 583 l 285 825 l 761 825 l 761 983 l 110 983 z m 360 1050 l 490 1050 l 686 1250 l 497 1250 z "},"Ê":{"ha":849,"x_min":0,"x_max":0,"o":"m 110 0 l 786 0 l 786 158 l 285 158 l 285 425 l 736 425 l 736 583 l 285 583 l 285 825 l 761 825 l 761 983 l 110 983 z m 678 1050 l 519 1250 l 332 1250 l 172 1050 l 328 1050 l 424 1175 l 519 1050 z "},"Ë":{"ha":849,"x_min":0,"x_max":0,"o":"m 110 0 l 786 0 l 786 158 l 285 158 l 285 425 l 736 425 l 736 583 l 285 583 l 285 825 l 761 825 l 761 983 l 110 983 z m 175 1150 b 281 1050 175 1097 219 1050 b 389 1150 342 1050 389 1093 b 281 1250 389 1207 342 1250 b 175 1150 219 1250 175 1203 z m 461 1150 b 567 1050 461 1097 506 1050 b 675 1150 628 1050 675 1093 b 567 1250 675 1207 628 1250 b 461 1150 506 1250 461 1203 z "},"È":{"ha":849,"x_min":0,"x_max":0,"o":"m 110 0 l 786 0 l 786 158 l 285 158 l 285 425 l 736 425 l 736 583 l 285 583 l 285 825 l 761 825 l 761 983 l 110 983 z m 353 1250 l 164 1250 l 360 1050 l 490 1050 z "},"Í":{"ha":386,"x_min":0,"x_max":0,"o":"m 106 0 l 281 0 l 281 983 l 106 983 z m 128 1050 l 258 1050 l 454 1250 l 265 1250 z "},"Î":{"ha":386,"x_min":0,"x_max":0,"o":"m 106 0 l 281 0 l 281 983 l 106 983 z m 446 1050 l 288 1250 l 100 1250 l -60 1050 l 96 1050 l 192 1175 l 288 1050 z "},"Ï":{"ha":386,"x_min":0,"x_max":0,"o":"m 106 0 l 281 0 l 281 983 l 106 983 z m -57 1150 b 49 1050 -57 1097 -12 1050 b 157 1150 110 1050 157 1093 b 49 1250 157 1207 110 1250 b -57 1150 -12 1250 -57 1203 z m 229 1150 b 335 1050 229 1097 274 1050 b 443 1150 396 1050 443 1093 b 335 1250 443 1207 396 1250 b 229 1150 274 1250 229 1203 z "},"Ì":{"ha":386,"x_min":0,"x_max":0,"o":"m 106 0 l 281 0 l 281 983 l 106 983 z m 121 1250 l -68 1250 l 128 1050 l 258 1050 z "},"Ñ":{"ha":1106,"x_min":0,"x_max":0,"o":"m 110 0 l 285 0 l 285 754 l 288 754 l 774 0 l 996 0 l 996 983 l 821 983 l 821 253 l 818 253 l 342 983 l 110 983 z m 389 1056 b 453 1115 399 1086 415 1115 b 653 1063 497 1115 578 1063 b 808 1239 757 1063 793 1150 l 717 1239 b 653 1181 707 1208 690 1181 b 453 1232 608 1181 528 1232 b 297 1056 349 1232 313 1144 z "},"Ó":{"ha":1157,"x_min":0,"x_max":0,"o":"m 57 488 b 576 -25 57 181 274 -25 b 1100 493 883 -19 1100 186 b 576 1008 1100 808 883 1014 b 57 488 274 1008 57 803 z m 240 499 b 578 850 240 694 375 850 b 917 499 782 850 917 694 b 578 133 917 289 782 133 b 240 499 375 133 240 289 z m 514 1050 l 644 1050 l 840 1250 l 651 1250 z "},"Ô":{"ha":1157,"x_min":0,"x_max":0,"o":"m 57 488 b 576 -25 57 181 274 -25 b 1100 493 883 -19 1100 186 b 576 1008 1100 808 883 1014 b 57 488 274 1008 57 803 z m 240 499 b 578 850 240 694 375 850 b 917 499 782 850 917 694 b 578 133 917 289 782 133 b 240 499 375 133 240 289 z m 832 1050 l 674 1250 l 486 1250 l 326 1050 l 482 1050 l 578 1175 l 674 1050 z "},"Ö":{"ha":1157,"x_min":0,"x_max":0,"o":"m 57 488 b 576 -25 57 181 274 -25 b 1100 493 883 -19 1100 186 b 576 1008 1100 808 883 1014 b 57 488 274 1008 57 803 z m 240 499 b 578 850 240 694 375 850 b 917 499 782 850 917 694 b 578 133 917 289 782 133 b 240 499 375 133 240 289 z m 329 1150 b 435 1050 329 1097 374 1050 b 543 1150 496 1050 543 1093 b 435 1250 543 1207 496 1250 b 329 1150 374 1250 329 1203 z m 615 1150 b 721 1050 615 1097 660 1050 b 829 1150 782 1050 829 1093 b 721 1250 829 1207 782 1250 b 615 1150 660 1250 615 1203 z "},"Ò":{"ha":1157,"x_min":0,"x_max":0,"o":"m 57 488 b 576 -25 57 181 274 -25 b 1100 493 883 -19 1100 186 b 576 1008 1100 808 883 1014 b 57 488 274 1008 57 803 z m 240 499 b 578 850 240 694 375 850 b 917 499 782 850 917 694 b 578 133 917 289 782 133 b 240 499 375 133 240 289 z m 507 1250 l 318 1250 l 514 1050 l 644 1050 z "},"Õ":{"ha":1157,"x_min":0,"x_max":0,"o":"m 57 488 b 576 -25 57 181 274 -25 b 1100 493 883 -19 1100 186 b 576 1008 1100 808 883 1014 b 57 488 274 1008 57 803 z m 240 499 b 578 850 240 694 375 850 b 917 499 782 850 917 694 b 578 133 917 289 782 133 b 240 499 375 133 240 289 z m 415 1056 b 479 1115 425 1086 442 1115 b 679 1063 524 1115 604 1063 b 835 1239 783 1063 819 1150 l 743 1239 b 679 1181 733 1208 717 1181 b 479 1232 635 1181 554 1232 b 324 1056 375 1232 339 1144 z "},"Š":{"ha":797,"x_min":0,"x_max":0,"o":"m 719 907 b 438 1008 643 979 540 1008 b 75 711 256 1008 75 914 b 542 268 75 360 542 483 b 369 133 542 178 450 133 b 175 236 292 133 218 171 l 43 108 b 365 -25 124 13 243 -25 b 725 289 558 -25 725 78 b 258 724 725 639 258 526 b 419 850 258 814 339 850 b 592 772 488 850 554 825 z m 147 1250 l 306 1050 l 490 1050 l 650 1250 l 497 1250 l 401 1125 l 306 1250 z "},"Ú":{"ha":1003,"x_min":0,"x_max":0,"o":"m 897 983 l 722 983 l 722 367 b 501 142 722 269 669 142 b 281 367 333 142 281 269 l 281 983 l 106 983 l 106 361 b 501 -25 106 124 276 -25 b 897 361 726 -25 897 124 z m 436 1050 l 567 1050 l 763 1250 l 574 1250 z "},"Û":{"ha":1003,"x_min":0,"x_max":0,"o":"m 897 983 l 722 983 l 722 367 b 501 142 722 269 669 142 b 281 367 333 142 281 269 l 281 983 l 106 983 l 106 361 b 501 -25 106 124 276 -25 b 897 361 726 -25 897 124 z m 754 1050 l 596 1250 l 408 1250 l 249 1050 l 404 1050 l 500 1175 l 596 1050 z "},"Ü":{"ha":1003,"x_min":0,"x_max":0,"o":"m 897 983 l 722 983 l 722 367 b 501 142 722 269 669 142 b 281 367 333 142 281 269 l 281 983 l 106 983 l 106 361 b 501 -25 106 124 276 -25 b 897 361 726 -25 897 124 z m 251 1150 b 357 1050 251 1097 296 1050 b 465 1150 418 1050 465 1093 b 357 1250 465 1207 418 1250 b 251 1150 296 1250 251 1203 z m 538 1150 b 643 1050 538 1097 582 1050 b 751 1150 704 1050 751 1093 b 643 1250 751 1207 704 1250 b 538 1150 582 1250 538 1203 z "},"Ù":{"ha":1003,"x_min":0,"x_max":0,"o":"m 897 983 l 722 983 l 722 367 b 501 142 722 269 669 142 b 281 367 333 142 281 269 l 281 983 l 106 983 l 106 361 b 501 -25 106 124 276 -25 b 897 361 726 -25 897 124 z m 429 1250 l 240 1250 l 436 1050 l 567 1050 z "},"Ý":{"ha":875,"x_min":0,"x_max":0,"o":"m 350 0 l 525 0 l 525 421 l 894 983 l 686 983 l 442 592 l 200 983 l -19 983 l 350 421 z m 372 1050 l 503 1050 l 699 1250 l 510 1250 z "},"Ÿ":{"ha":875,"x_min":0,"x_max":0,"o":"m 350 0 l 525 0 l 525 421 l 894 983 l 686 983 l 442 592 l 200 983 l -19 983 l 350 421 z m 188 1150 b 293 1050 188 1097 232 1050 b 401 1150 354 1050 401 1093 b 293 1250 401 1207 354 1250 b 188 1150 232 1250 188 1203 z m 474 1150 b 579 1050 474 1097 518 1050 b 688 1150 640 1050 688 1093 b 579 1250 688 1207 640 1250 b 474 1150 518 1250 474 1203 z "},"Ž":{"ha":849,"x_min":0,"x_max":0,"o":"m 49 0 l 800 0 l 800 158 l 263 158 l 792 825 l 792 983 l 57 983 l 57 825 l 574 825 l 49 158 z m 174 1250 l 332 1050 l 517 1050 l 676 1250 l 524 1250 l 428 1125 l 332 1250 z "},"á":{"ha":746,"x_min":0,"x_max":0,"o":"m 511 0 l 661 0 l 661 383 b 376 683 661 478 661 683 b 93 576 271 683 167 651 l 181 489 b 358 558 225 531 289 558 b 511 433 447 558 511 515 l 511 415 l 469 415 b 50 183 303 415 50 400 b 293 -17 50 51 169 -17 b 507 92 382 -17 460 17 l 511 92 z m 501 261 b 333 108 501 168 447 108 b 217 196 279 108 217 135 b 467 299 217 292 375 299 l 501 299 z m 308 783 l 439 783 l 635 983 l 446 983 z "},"â":{"ha":746,"x_min":0,"x_max":0,"o":"m 511 0 l 661 0 l 661 383 b 376 683 661 478 661 683 b 93 576 271 683 167 651 l 181 489 b 358 558 225 531 289 558 b 511 433 447 558 511 515 l 511 415 l 469 415 b 50 183 303 415 50 400 b 293 -17 50 51 169 -17 b 507 92 382 -17 460 17 l 511 92 z m 501 261 b 333 108 501 168 447 108 b 217 196 279 108 217 135 b 467 299 217 292 375 299 l 501 299 z m 626 783 l 468 983 l 281 983 l 121 783 l 276 783 l 372 908 l 468 783 z "},"ä":{"ha":746,"x_min":0,"x_max":0,"o":"m 511 0 l 661 0 l 661 383 b 376 683 661 478 661 683 b 93 576 271 683 167 651 l 181 489 b 358 558 225 531 289 558 b 511 433 447 558 511 515 l 511 415 l 469 415 b 50 183 303 415 50 400 b 293 -17 50 51 169 -17 b 507 92 382 -17 460 17 l 511 92 z m 501 261 b 333 108 501 168 447 108 b 217 196 279 108 217 135 b 467 299 217 292 375 299 l 501 299 z m 124 883 b 229 783 124 831 168 783 b 338 883 290 783 338 826 b 229 983 338 940 290 983 b 124 883 168 983 124 936 z m 410 883 b 515 783 410 831 454 783 b 624 883 576 783 624 826 b 515 983 624 940 576 983 b 410 883 454 983 410 936 z "},"à":{"ha":746,"x_min":0,"x_max":0,"o":"m 511 0 l 661 0 l 661 383 b 376 683 661 478 661 683 b 93 576 271 683 167 651 l 181 489 b 358 558 225 531 289 558 b 511 433 447 558 511 515 l 511 415 l 469 415 b 50 183 303 415 50 400 b 293 -17 50 51 169 -17 b 507 92 382 -17 460 17 l 511 92 z m 501 261 b 333 108 501 168 447 108 b 217 196 279 108 217 135 b 467 299 217 292 375 299 l 501 299 z m 301 983 l 113 983 l 308 783 l 439 783 z "},"å":{"ha":746,"x_min":0,"x_max":0,"o":"m 511 0 l 661 0 l 661 383 b 376 683 661 478 661 683 b 93 576 271 683 167 651 l 181 489 b 358 558 225 531 289 558 b 511 433 447 558 511 515 l 511 415 l 469 415 b 50 183 303 415 50 400 b 293 -17 50 51 169 -17 b 507 92 382 -17 460 17 l 511 92 z m 501 261 b 333 108 501 168 447 108 b 217 196 279 108 217 135 b 467 299 217 292 375 299 l 501 299 z m 519 910 b 374 1051 519 992 456 1051 b 228 908 290 1051 228 990 b 374 768 228 828 292 768 b 519 910 456 768 519 828 z m 453 910 b 374 835 453 865 415 835 b 294 910 332 835 294 867 b 374 985 294 953 332 985 b 453 910 415 985 453 953 z "},"ã":{"ha":746,"x_min":0,"x_max":0,"o":"m 511 0 l 661 0 l 661 383 b 376 683 661 478 661 683 b 93 576 271 683 167 651 l 181 489 b 358 558 225 531 289 558 b 511 433 447 558 511 515 l 511 415 l 469 415 b 50 183 303 415 50 400 b 293 -17 50 51 169 -17 b 507 92 382 -17 460 17 l 511 92 z m 501 261 b 333 108 501 168 447 108 b 217 196 279 108 217 135 b 467 299 217 292 375 299 l 501 299 z m 210 789 b 274 849 219 819 236 849 b 474 796 318 849 399 796 b 629 972 578 796 614 883 l 538 972 b 474 914 528 942 511 914 b 274 965 429 914 349 965 b 118 789 169 965 133 878 z "},"ç":{"ha":669,"x_min":0,"x_max":0,"o":"m 665 582 b 424 683 601 653 508 683 b 61 333 222 683 61 543 b 350 -10 61 150 185 19 l 271 -125 l 308 -160 b 360 -150 325 -154 342 -150 b 431 -200 389 -150 431 -164 b 351 -258 431 -246 382 -258 b 238 -231 311 -258 272 -249 l 207 -294 b 354 -333 251 -319 303 -333 b 547 -199 438 -333 547 -300 b 379 -83 547 -92 461 -83 l 426 -17 b 664 76 485 -17 597 10 l 553 196 b 424 133 522 156 475 133 b 228 333 301 133 228 229 b 424 533 228 438 301 533 b 550 467 468 533 511 507 z "},"é":{"ha":797,"x_min":0,"x_max":0,"o":"m 736 275 l 736 321 b 424 683 736 553 610 683 b 61 333 222 683 61 543 b 424 -17 61 124 222 -17 b 706 117 529 -17 628 21 l 586 207 b 407 117 544 156 490 117 b 228 275 314 117 239 176 z m 228 400 b 400 558 240 496 301 558 b 569 400 504 558 568 497 z m 333 783 l 464 783 l 660 983 l 471 983 z "},"ê":{"ha":797,"x_min":0,"x_max":0,"o":"m 736 275 l 736 321 b 424 683 736 553 610 683 b 61 333 222 683 61 543 b 424 -17 61 124 222 -17 b 706 117 529 -17 628 21 l 586 207 b 407 117 544 156 490 117 b 228 275 314 117 239 176 z m 228 400 b 400 558 240 496 301 558 b 569 400 504 558 568 497 z m 651 783 l 493 983 l 306 983 l 146 783 l 301 783 l 397 908 l 493 783 z "},"ë":{"ha":797,"x_min":0,"x_max":0,"o":"m 736 275 l 736 321 b 424 683 736 553 610 683 b 61 333 222 683 61 543 b 424 -17 61 124 222 -17 b 706 117 529 -17 628 21 l 586 207 b 407 117 544 156 490 117 b 228 275 314 117 239 176 z m 228 400 b 400 558 240 496 301 558 b 569 400 504 558 568 497 z m 149 883 b 254 783 149 831 193 783 b 363 883 315 783 363 826 b 254 983 363 940 315 983 b 149 883 193 983 149 936 z m 435 883 b 540 783 435 831 479 783 b 649 883 601 783 649 826 b 540 983 649 940 601 983 b 435 883 479 983 435 936 z "},"è":{"ha":797,"x_min":0,"x_max":0,"o":"m 736 275 l 736 321 b 424 683 736 553 610 683 b 61 333 222 683 61 543 b 424 -17 61 124 222 -17 b 706 117 529 -17 628 21 l 586 207 b 407 117 544 156 490 117 b 228 275 314 117 239 176 z m 228 400 b 400 558 240 496 301 558 b 569 400 504 558 568 497 z m 326 983 l 138 983 l 333 783 l 464 783 z "},"í":{"ha":361,"x_min":0,"x_max":0,"o":"m 97 0 l 264 0 l 264 667 l 97 667 z m 99 783 l 229 783 l 425 983 l 236 983 z "},"î":{"ha":361,"x_min":0,"x_max":0,"o":"m 97 0 l 264 0 l 264 667 l 97 667 z m 433 783 l 275 983 l 88 983 l -72 783 l 83 783 l 179 908 l 275 783 z "},"ï":{"ha":361,"x_min":0,"x_max":0,"o":"m 97 0 l 264 0 l 264 667 l 97 667 z m -69 883 b 36 783 -69 831 -25 783 b 144 883 97 783 144 826 b 36 983 144 940 97 983 b -69 883 -25 983 -69 936 z m 217 883 b 322 783 217 831 261 783 b 431 883 383 783 431 826 b 322 983 431 940 383 983 b 217 883 261 983 217 936 z "},"ì":{"ha":361,"x_min":0,"x_max":0,"o":"m 97 0 l 264 0 l 264 667 l 97 667 z m 125 983 l -64 983 l 132 783 l 263 783 z "},"ñ":{"ha":797,"x_min":0,"x_max":0,"o":"m 94 0 l 261 0 l 261 364 b 414 533 261 453 304 533 b 536 338 531 533 536 411 l 536 0 l 703 0 l 703 421 b 460 683 703 557 639 683 b 256 560 349 683 286 626 l 253 560 l 253 667 l 94 667 z m 235 789 b 299 849 244 819 261 849 b 499 796 343 849 424 796 b 654 972 603 796 639 883 l 563 972 b 499 914 553 942 536 914 b 299 965 454 914 374 965 b 143 789 194 965 158 878 z "},"ó":{"ha":847,"x_min":0,"x_max":0,"o":"m 61 333 b 424 -17 61 124 222 -17 b 786 333 625 -17 786 124 b 424 683 786 543 625 683 b 61 333 222 683 61 543 z m 228 333 b 424 533 228 438 301 533 b 619 333 546 533 619 438 b 424 133 619 229 546 133 b 228 333 301 133 228 229 z m 358 783 l 489 783 l 685 983 l 496 983 z "},"ô":{"ha":847,"x_min":0,"x_max":0,"o":"m 61 333 b 424 -17 61 124 222 -17 b 786 333 625 -17 786 124 b 424 683 786 543 625 683 b 61 333 222 683 61 543 z m 228 333 b 424 533 228 438 301 533 b 619 333 546 533 619 438 b 424 133 619 229 546 133 b 228 333 301 133 228 229 z m 676 783 l 518 983 l 331 983 l 171 783 l 326 783 l 422 908 l 518 783 z "},"ö":{"ha":847,"x_min":0,"x_max":0,"o":"m 61 333 b 424 -17 61 124 222 -17 b 786 333 625 -17 786 124 b 424 683 786 543 625 683 b 61 333 222 683 61 543 z m 228 333 b 424 533 228 438 301 533 b 619 333 546 533 619 438 b 424 133 619 229 546 133 b 228 333 301 133 228 229 z m 174 883 b 279 783 174 831 218 783 b 388 883 340 783 388 826 b 279 983 388 940 340 983 b 174 883 218 983 174 936 z m 460 883 b 565 783 460 831 504 783 b 674 883 626 783 674 826 b 565 983 674 940 626 983 b 460 883 504 983 460 936 z "},"ò":{"ha":847,"x_min":0,"x_max":0,"o":"m 61 333 b 424 -17 61 124 222 -17 b 786 333 625 -17 786 124 b 424 683 786 543 625 683 b 61 333 222 683 61 543 z m 228 333 b 424 533 228 438 301 533 b 619 333 546 533 619 438 b 424 133 619 229 546 133 b 228 333 301 133 228 229 z m 351 983 l 163 983 l 358 783 l 489 783 z "},"õ":{"ha":847,"x_min":0,"x_max":0,"o":"m 61 333 b 424 -17 61 124 222 -17 b 786 333 625 -17 786 124 b 424 683 786 543 625 683 b 61 333 222 683 61 543 z m 228 333 b 424 533 228 438 301 533 b 619 333 546 533 619 438 b 424 133 619 229 546 133 b 228 333 301 133 228 229 z m 260 789 b 324 849 269 819 286 849 b 524 796 368 849 449 796 b 679 972 628 796 664 883 l 588 972 b 524 914 578 942 561 914 b 324 965 479 914 399 965 b 168 789 219 965 183 878 z "},"š":{"ha":617,"x_min":0,"x_max":0,"o":"m 561 582 b 324 683 507 656 413 683 b 56 468 189 683 56 617 b 415 185 56 214 415 322 b 304 108 415 132 353 108 b 146 190 233 108 189 143 l 35 86 b 294 -17 103 10 192 -17 b 582 197 431 -17 582 39 b 222 479 582 457 222 360 b 319 550 222 529 275 550 b 450 482 376 550 418 526 z m 57 983 l 215 783 l 400 783 l 560 983 l 407 983 l 311 858 l 215 983 z "},"ú":{"ha":797,"x_min":0,"x_max":0,"o":"m 703 667 l 536 667 l 536 303 b 383 133 536 214 493 133 b 261 329 267 133 261 256 l 261 667 l 94 667 l 94 246 b 338 -17 94 110 158 -17 b 542 107 449 -17 511 40 l 544 107 l 544 0 l 703 0 z m 333 783 l 464 783 l 660 983 l 471 983 z "},"û":{"ha":797,"x_min":0,"x_max":0,"o":"m 703 667 l 536 667 l 536 303 b 383 133 536 214 493 133 b 261 329 267 133 261 256 l 261 667 l 94 667 l 94 246 b 338 -17 94 110 158 -17 b 542 107 449 -17 511 40 l 544 107 l 544 0 l 703 0 z m 651 783 l 493 983 l 306 983 l 146 783 l 301 783 l 397 908 l 493 783 z "},"ü":{"ha":797,"x_min":0,"x_max":0,"o":"m 703 667 l 536 667 l 536 303 b 383 133 536 214 493 133 b 261 329 267 133 261 256 l 261 667 l 94 667 l 94 246 b 338 -17 94 110 158 -17 b 542 107 449 -17 511 40 l 544 107 l 544 0 l 703 0 z m 149 883 b 254 783 149 831 193 783 b 363 883 315 783 363 826 b 254 983 363 940 315 983 b 149 883 193 983 149 936 z m 435 883 b 540 783 435 831 479 783 b 649 883 601 783 649 826 b 540 983 649 940 601 983 b 435 883 479 983 435 936 z "},"ù":{"ha":797,"x_min":0,"x_max":0,"o":"m 703 667 l 536 667 l 536 303 b 383 133 536 214 493 133 b 261 329 267 133 261 256 l 261 667 l 94 667 l 94 246 b 338 -17 94 110 158 -17 b 542 107 449 -17 511 40 l 544 107 l 544 0 l 703 0 z m 326 983 l 138 983 l 333 783 l 464 783 z "},"ý":{"ha":721,"x_min":0,"x_max":0,"o":"m 289 -6 l 257 -85 b 125 -183 229 -154 207 -183 b 40 -167 96 -183 67 -176 l 19 -317 b 147 -333 61 -328 104 -333 b 401 -143 294 -333 353 -268 l 717 667 l 543 667 l 376 204 l 374 204 l 188 667 l 4 667 z m 296 783 l 426 783 l 622 983 l 433 983 z "},"ÿ":{"ha":721,"x_min":0,"x_max":0,"o":"m 289 -6 l 257 -85 b 125 -183 229 -154 207 -183 b 40 -167 96 -183 67 -176 l 19 -317 b 147 -333 61 -328 104 -333 b 401 -143 294 -333 353 -268 l 717 667 l 543 667 l 376 204 l 374 204 l 188 667 l 4 667 z m 111 883 b 217 783 111 831 156 783 b 325 883 278 783 325 826 b 217 983 325 940 278 983 b 111 883 156 983 111 936 z m 397 883 b 503 783 397 831 442 783 b 611 883 564 783 611 826 b 503 983 611 940 564 983 b 397 883 442 983 397 936 z "},"ž":{"ha":669,"x_min":0,"x_max":0,"o":"m 47 0 l 622 0 l 622 133 l 244 133 l 606 515 l 606 667 l 64 667 l 64 533 l 404 533 l 404 531 l 47 154 z m 83 983 l 242 783 l 426 783 l 586 983 l 433 983 l 338 858 l 242 983 z "},"∆":{"ha":960,"x_min":0,"x_max":0,"o":"m 40 0 l 918 0 l 918 94 l 575 1003 l 390 1003 l 40 93 z m 201 124 l 393 610 b 474 842 417 685 461 793 l 479 842 b 567 588 496 779 543 661 l 749 124 z "},"Ω":{"ha":1054,"x_min":0,"x_max":0,"o":"m 271 124 l 63 124 l 63 0 l 440 0 l 440 92 b 240 507 336 151 240 301 b 529 868 240 711 356 868 b 811 513 713 868 811 690 b 613 92 811 289 714 156 l 613 0 l 989 0 l 989 124 l 778 124 l 778 128 b 969 543 875 207 969 351 b 531 994 969 767 807 994 b 82 536 268 994 82 793 b 271 128 82 349 175 210 z "},"μ":{"ha":797,"x_min":0,"x_max":0,"o":"m 94 667 l 94 -317 l 261 -317 l 261 -7 b 338 -17 283 -14 308 -17 b 542 107 449 -17 511 40 l 544 107 l 544 0 l 703 0 l 703 667 l 536 667 l 536 303 b 383 133 536 214 493 133 b 261 329 267 133 261 256 l 261 667 z "},"π":{"ha":865,"x_min":0,"x_max":0,"o":"m 829 603 l 842 733 l 236 733 b 8 689 115 733 44 715 l 28 588 b 181 603 60 599 103 603 b 83 0 176 436 135 156 l 236 0 b 335 603 288 136 328 438 l 563 603 l 563 203 b 588 0 563 94 571 26 l 739 0 b 719 213 728 42 719 101 l 719 603 z "},"€":{"ha":822,"x_min":0,"x_max":0,"o":"m 778 103 l 674 207 b 506 131 633 158 582 131 b 313 303 401 131 340 199 l 554 303 l 594 428 l 294 428 b 293 476 293 443 293 460 b 297 556 293 504 294 531 l 628 556 l 668 685 l 324 685 b 546 851 367 806 453 851 b 700 811 606 851 660 838 l 751 954 b 549 1000 708 981 625 1000 b 140 685 349 1000 199 888 l 68 685 l 25 556 l 117 556 b 114 485 115 533 114 510 b 115 428 114 465 114 446 l 60 428 l 21 303 l 131 303 b 497 -17 168 115 276 -17 b 778 103 629 -17 732 39 z "},"ℓ":{"ha":739,"x_min":0,"x_max":0,"o":"m 642 246 b 449 113 601 182 533 113 b 306 286 372 113 308 168 l 306 336 b 601 836 486 504 601 665 b 403 1079 601 969 540 1079 b 156 725 272 1079 156 981 l 156 364 b 38 267 119 331 79 301 l 79 183 b 158 244 107 203 133 225 l 158 228 b 413 -11 172 100 244 -11 b 708 182 528 -11 635 44 z m 306 736 b 408 969 306 915 361 969 b 499 839 474 969 499 917 b 306 478 499 724 415 597 z "},"℮":{"ha":1226,"x_min":0,"x_max":0,"o":"m 1176 478 l 1176 492 b 611 1000 1176 772 924 1000 b 47 492 300 1000 47 772 b 611 -15 47 211 300 -15 b 1058 181 793 -15 957 63 l 976 181 b 613 13 888 79 758 13 b 267 163 478 13 356 71 b 256 194 260 172 256 183 l 256 471 b 263 478 256 476 258 478 z m 969 514 b 964 504 969 511 968 504 l 263 504 b 256 514 258 504 256 511 l 256 786 b 268 821 256 799 260 811 b 613 969 357 911 479 969 b 956 825 747 969 867 913 b 969 792 965 815 969 804 z "},"∂":{"ha":825,"x_min":0,"x_max":0,"o":"m 149 910 b 343 978 188 940 251 978 b 603 608 493 978 603 817 b 601 556 603 594 603 569 l 600 556 b 369 682 578 594 499 682 b 56 319 199 682 56 540 b 353 -11 56 169 150 -11 b 754 568 610 -11 754 235 b 363 1103 754 921 569 1103 b 101 1022 231 1103 147 1057 z m 368 115 b 210 317 272 115 210 204 b 400 560 210 449 292 560 b 585 424 501 560 568 475 b 369 115 568 274 490 115 z "},"∏":{"ha":1042,"x_min":0,"x_max":0,"o":"m 1006 842 l 1006 979 l 35 979 l 35 842 l 190 842 l 190 -135 l 343 -135 l 343 842 l 699 842 l 699 -135 l 851 -135 l 851 842 z "},"∑":{"ha":815,"x_min":0,"x_max":0,"o":"m 786 -135 l 786 6 l 229 6 l 229 10 l 578 444 l 260 843 l 260 849 l 763 849 l 763 979 l 49 979 l 49 874 l 401 421 l 32 -37 l 32 -135 z "},"∙":{"ha":411,"x_min":0,"x_max":0,"o":"m 94 404 b 206 299 94 344 147 299 b 317 407 267 299 317 347 b 206 513 317 467 265 513 b 94 404 144 513 94 464 z "},"√":{"ha":853,"x_min":0,"x_max":0,"o":"m 863 1169 l 753 1169 l 493 83 b 472 -33 485 40 478 -3 l 469 -32 b 442 78 463 -1 451 39 l 275 561 l 46 469 l 74 383 l 182 425 l 407 -203 l 535 -203 z "},"∞":{"ha":1119,"x_min":0,"x_max":0,"o":"m 1047 406 b 831 638 1047 544 956 636 b 567 472 706 638 632 546 b 304 638 492 565 411 638 b 71 399 171 638 71 538 b 293 164 71 261 175 164 b 561 331 408 164 486 240 b 821 164 658 210 736 164 b 1047 404 938 164 1047 256 z m 304 251 b 161 397 219 251 161 317 b 297 553 161 483 213 553 b 513 394 394 553 451 474 b 306 251 457 332 390 251 z m 821 553 b 957 399 901 553 957 490 b 825 251 957 331 910 251 b 611 403 751 251 701 296 b 819 553 658 454 729 553 z "},"∫":{"ha":547,"x_min":0,"x_max":0,"o":"m 521 1188 b 436 1206 506 1196 469 1206 b 281 1144 379 1206 321 1188 b 197 836 221 1083 197 994 b 218 136 197 603 218 382 b 174 -92 218 3 201 -56 b 108 -121 158 -111 132 -121 b 43 -104 81 -121 57 -111 l 22 -212 b 128 -236 42 -224 86 -236 b 297 -144 193 -236 261 -210 b 354 136 329 -93 354 -3 b 333 821 354 379 333 596 b 376 1061 333 943 343 1021 b 449 1097 394 1086 424 1097 b 503 1083 469 1097 489 1090 z "},"≈":{"ha":811,"x_min":0,"x_max":0,"o":"m 692 628 b 556 524 651 563 614 524 b 424 574 507 524 476 544 b 267 629 385 596 338 629 b 60 488 179 629 103 571 l 117 435 b 258 539 154 489 192 539 b 388 492 307 539 344 517 b 554 433 456 453 494 433 b 749 575 639 433 703 493 z m 692 368 b 556 264 650 303 614 264 b 424 317 506 264 471 290 b 267 371 385 338 338 371 b 60 228 181 371 103 311 l 117 176 b 258 281 154 229 192 281 b 388 233 306 281 343 258 b 554 174 454 196 494 174 b 749 315 640 174 704 235 z "},"≠":{"ha":811,"x_min":0,"x_max":0,"o":"m 588 722 l 514 753 l 440 589 l 71 589 l 71 499 l 404 499 l 314 297 l 71 297 l 71 207 l 278 207 l 215 71 l 288 39 l 364 207 l 739 207 l 739 297 l 400 297 l 490 499 l 739 499 l 739 589 l 526 589 z "},"≤":{"ha":811,"x_min":0,"x_max":0,"o":"m 735 138 l 735 243 l 174 506 l 174 508 l 735 768 l 735 874 l 79 554 l 79 457 z m 739 -11 l 739 82 l 72 82 l 72 -11 z "},"≥":{"ha":811,"x_min":0,"x_max":0,"o":"m 81 874 l 81 768 l 642 507 l 642 504 l 81 243 l 81 138 l 736 457 l 736 554 z m 736 -11 l 736 82 l 74 82 l 74 -11 z "},"◊":{"ha":853,"x_min":0,"x_max":0,"o":"m 778 489 l 490 1047 l 367 1047 l 75 489 l 361 -69 l 485 -69 z m 640 485 l 454 125 b 429 53 446 108 433 71 l 424 53 b 399 126 419 71 410 100 l 211 492 l 396 847 b 424 924 407 872 417 900 l 428 924 b 456 847 433 903 444 871 z "}," ":{"ha":411,"x_min":0,"x_max":0,"o":""},"­":{"ha":438,"x_min":0,"x_max":0,"o":"m 390 413 l 47 413 l 47 271 l 390 271 z "},"ˉ":{"ha":361,"x_min":0,"x_max":0,"o":"m 403 935 l -42 935 l -42 826 l 403 826 z "},"Ω":{"ha":1054,"x_min":0,"x_max":0,"o":"m 271 124 l 63 124 l 63 0 l 440 0 l 440 92 b 240 507 336 151 240 301 b 529 868 240 711 356 868 b 811 513 713 868 811 690 b 613 92 811 289 714 156 l 613 0 l 989 0 l 989 124 l 778 124 l 778 128 b 969 543 875 207 969 351 b 531 994 969 767 807 994 b 82 536 268 994 82 793 b 271 128 82 349 175 210 z "},"∕":{"ha":232,"x_min":0,"x_max":0,"o":"m -231 8 l -115 -44 l 463 975 l 347 1028 z "}}}
